<?xml version="1.0" standalone="no"?>
<!DOCTYPE svg PUBLIC "-//W3C//DTD SVG 20010904//EN"
 "http://www.w3.org/TR/2001/REC-SVG-20010904/DTD/svg10.dtd">
<svg version="1.0" xmlns="http://www.w3.org/2000/svg"
 width="255.000000pt" height="251.000000pt" viewBox="0 0 255.000000 251.000000"
 preserveAspectRatio="xMidYMid meet">

<g transform="translate(0.000000,251.000000) scale(0.100000,-0.100000)"
fill="#000000" stroke="none">
<path d="M1215 2309 c-38 -17 -80 -40 -93 -53 -29 -28 -54 -119 -46 -167 4
-28 1 -38 -10 -42 -23 -9 -20 -74 4 -119 11 -21 23 -68 26 -107 l7 -69 -31 -7
c-17 -3 -57 -23 -89 -44 -38 -24 -76 -40 -108 -44 -28 -4 -71 -17 -97 -30
l-46 -23 -7 60 c-17 156 -32 176 -131 176 -63 0 -76 -3 -86 -20 -9 -14 -24
-20 -50 -20 -34 0 -68 -20 -68 -41 0 -5 -15 -9 -34 -9 -57 0 -73 -26 -84 -138
-7 -65 -8 -67 -37 -72 -25 -4 -30 -10 -30 -35 0 -25 5 -31 30 -35 29 -5 30 -7
37 -72 11 -112 27 -138 83 -138 25 0 35 -5 40 -20 3 -11 17 -23 31 -26 31 -8
27 -25 -10 -42 -49 -24 -73 -123 -41 -169 8 -11 20 -54 26 -94 14 -92 28 -117
104 -178 184 -149 368 -238 449 -217 32 8 96 63 96 82 0 23 14 16 55 -27 22
-23 58 -54 79 -70 21 -16 32 -29 24 -29 -18 0 -97 51 -122 78 l-18 21 -36 -35
c-37 -36 -100 -59 -132 -49 -34 11 -22 -2 43 -48 88 -64 160 -105 250 -143
l77 -33 91 39 c115 50 297 169 278 181 -8 5 -21 9 -29 9 -8 0 -27 7 -43 15
-25 13 -30 12 -64 -10 -57 -40 -62 -29 -9 22 31 31 50 43 53 35 15 -41 154
-57 216 -25 55 28 132 89 176 140 88 99 133 202 156 355 15 97 15 101 -5 133
-26 42 -25 55 4 55 24 0 56 23 56 41 0 5 15 9 34 9 57 0 73 26 84 138 7 65 8
67 37 72 25 4 30 10 30 35 0 25 -5 31 -30 35 -29 5 -30 7 -37 72 -11 112 -27
138 -84 138 -19 0 -34 4 -34 9 0 21 -34 41 -68 41 -26 0 -41 6 -50 20 -10 17
-23 20 -86 20 -100 0 -115 -20 -131 -181 l-7 -67 -54 25 c-29 13 -70 27 -91
30 -21 3 -53 19 -71 35 -18 15 -55 40 -83 54 l-50 25 6 67 c4 37 12 73 18 80
18 23 28 102 15 125 -7 12 -11 33 -9 46 7 60 -11 132 -42 167 -33 38 -122 94
-147 93 -8 -1 -46 -14 -85 -30z m27 -155 c33 -4 84 -1 123 6 36 7 68 11 70 8
2 -2 7 -56 11 -121 7 -115 6 -118 -17 -144 -18 -20 -20 -25 -6 -20 40 14 2
-104 -38 -119 -8 -4 -15 -13 -15 -22 0 -32 -31 -52 -81 -52 -52 0 -79 23 -79
67 0 14 -5 21 -13 17 -15 -5 -53 43 -62 79 -6 23 -4 25 16 20 23 -6 23 -6 -5
27 l-29 35 7 109 c4 61 10 114 13 119 3 5 15 6 27 3 12 -3 47 -8 78 -12z m45
-494 c54 0 67 7 108 63 15 20 31 37 36 37 5 0 9 -26 10 -57 1 -55 2 -56 11
-25 6 17 16 32 23 32 13 0 102 -57 111 -71 3 -5 -5 -19 -18 -30 l-23 -20 35 8
c60 14 113 8 164 -17 69 -35 96 -71 96 -128 1 -50 28 -128 29 -84 1 12 4 22 8
22 16 0 116 -85 134 -113 21 -35 25 -101 10 -155 -9 -30 -8 -31 10 -22 10 6
19 15 19 21 0 6 4 8 9 4 12 -7 1 -47 -28 -104 -22 -43 -22 -43 -2 -36 28 8 27
-11 -2 -95 -42 -119 -131 -230 -241 -302 -51 -33 -67 -38 -116 -38 -31 0 -64
6 -75 13 -18 14 -18 16 4 102 6 22 11 54 11 71 0 50 22 61 78 41 53 -19 143
-24 105 -5 -21 10 -21 11 14 56 l35 46 -7 90 c-6 96 -5 102 35 129 l25 18 -37
-3 c-81 -5 -139 114 -88 179 11 14 20 40 20 57 l0 31 -19 -28 -18 -29 -7 36
c-12 62 -23 48 -29 -39 -8 -118 -23 -163 -61 -182 -38 -20 -180 -29 -218 -14
-28 10 -28 12 -29 98 0 49 -4 106 -8 128 -7 37 -8 34 -14 -40 -15 -169 -17
-174 -46 -190 -44 -22 -157 -38 -240 -33 -74 5 -75 5 -41 -10 56 -23 147 -26
220 -7 72 19 114 21 207 10 40 -5 79 -3 109 4 25 7 48 10 51 8 8 -9 -27 -78
-37 -72 -6 4 -10 -14 -10 -48 0 -33 -9 -77 -25 -117 -29 -75 -30 -76 -9 -60
13 12 14 8 9 -41 -4 -30 -11 -68 -16 -86 -10 -32 -133 -166 -181 -197 -25 -17
-28 -16 -75 7 -75 39 -165 109 -197 156 -23 33 -30 54 -32 101 -1 50 -7 66
-34 100 l-32 40 32 11 31 11 -40 39 c-49 48 -57 75 -37 123 13 32 14 38 1 43
-8 3 -15 9 -15 13 0 4 -18 39 -40 76 -35 60 -40 74 -34 109 5 35 4 38 -8 22
-7 -9 -35 -28 -63 -41 -49 -24 -50 -24 -21 -32 27 -7 28 -8 24 -60 -5 -58 -26
-90 -82 -125 -29 -17 -30 -17 -56 4 -15 12 -41 29 -58 38 -25 14 -30 24 -34
65 -3 27 -1 57 4 67 9 17 8 17 -21 3 -37 -19 -41 -20 -41 -3 0 16 30 45 62 61
34 17 65 70 73 123 19 128 109 203 245 203 39 0 49 -4 57 -22 11 -23 11 -23
18 5 4 17 3 33 -5 42 -9 11 -5 17 27 33 71 36 80 36 88 3 12 -55 25 -44 25 21
l0 63 49 -52 c46 -50 52 -53 98 -53z m480 -616 c1 0 -2 -16 -8 -35 -8 -26 -7
-48 5 -94 15 -60 15 -60 -9 -85 -22 -22 -28 -23 -58 -12 -18 7 -42 12 -54 12
-30 0 -34 9 -18 41 8 15 15 48 15 72 0 26 6 49 14 56 8 7 20 34 27 62 l13 49
35 -32 c20 -18 37 -33 38 -34z m-1156 30 c26 -8 54 -23 64 -33 19 -22 45 -102
45 -139 l0 -26 -30 29 c-35 34 -37 28 -10 -25 38 -75 118 -111 166 -75 25 19
69 19 88 -1 23 -23 20 -37 -6 -28 -20 6 -21 5 -9 -10 8 -9 33 -21 57 -27 l44
-11 0 -49 c0 -61 -14 -91 -52 -113 -22 -14 -41 -17 -70 -12 -45 7 -157 60
-223 106 -75 52 -168 177 -179 242 -4 24 -23 54 -52 87 -25 28 -42 56 -39 62
4 6 21 19 38 29 34 21 87 19 168 -6z m256 -66 c27 -28 44 -56 48 -80 4 -20 16
-44 26 -54 27 -24 24 -35 -7 -24 -36 14 -76 12 -98 -5 -22 -17 -52 -20 -60 -6
-7 10 -37 164 -33 166 1 1 18 11 37 23 19 12 37 22 40 22 3 0 24 -19 47 -42z"/>
<path d="M1140 2019 c-11 -8 -12 -12 -2 -16 6 -2 12 -11 12 -18 0 -16 22 -25
64 -25 39 0 56 16 55 50 -1 16 -3 19 -6 8 -5 -22 -2 -21 -46 -3 -43 18 -57 18
-77 4z"/>
<path d="M1364 2016 c-21 -9 -35 -11 -42 -4 -6 6 -10 -8 -10 -44 0 -50 1 -52
15 -30 11 15 25 22 48 22 18 0 38 7 45 15 7 8 9 15 4 15 -5 0 -3 4 5 9 17 11
6 31 -17 31 -9 -1 -31 -7 -48 -14z"/>
<path d="M1245 1879 c-2 -3 9 -10 26 -16 17 -7 31 -7 35 -2 3 5 14 9 25 9 10
0 19 4 19 8 0 9 -100 10 -105 1z"/>
<path d="M1228 1826 c-42 -15 -34 -22 25 -19 28 1 70 2 91 3 22 0 37 3 33 6
-12 12 -123 19 -149 10z"/>
<path d="M1250 1779 c0 -16 32 -31 55 -25 40 10 30 31 -15 31 -22 0 -40 -2
-40 -6z"/>
<path d="M1034 1537 c-45 -22 -72 -49 -99 -97 -4 -8 5 -3 21 12 53 49 110 68
204 67 47 0 103 -6 125 -14 61 -22 55 -8 -10 21 -84 39 -174 43 -241 11z"/>
<path d="M1479 1536 c-19 -7 -46 -20 -60 -30 l-24 -18 25 8 c99 29 150 30 208
4 42 -19 42 -19 32 0 -25 46 -108 62 -181 36z"/>
<path d="M1885 1276 c25 -25 47 -60 52 -82 10 -39 10 -39 18 -11 12 44 -2 73
-52 106 -63 42 -67 39 -18 -13z"/>
<path d="M1613 1163 c-7 -2 -13 -9 -13 -14 0 -15 53 -6 58 9 4 12 -21 15 -45
5z"/>
<path d="M1072 1133 c-20 -8 -3 -23 28 -23 33 0 48 15 24 24 -18 7 -33 7 -52
-1z"/>
<path d="M1384 995 c-1 -36 0 -65 2 -65 7 0 34 59 34 73 0 8 -8 24 -17 36 -18
21 -18 20 -19 -44z"/>
<path d="M1118 1014 c-18 -17 -7 -61 21 -88 l29 -28 -19 -32 c-22 -35 -25 -76
-7 -94 19 -19 25 -14 20 17 -5 35 20 85 53 107 19 12 39 15 77 12 47 -5 50 -4
32 9 -13 10 -39 13 -81 11 -53 -2 -65 0 -87 21 -14 13 -26 35 -28 48 -2 14 -6
21 -10 17z"/>
<path d="M1562 1003 c-1 -12 -16 -38 -32 -57 -28 -31 -34 -34 -72 -29 -48 7
-46 -11 2 -21 21 -4 37 -17 53 -43 15 -27 23 -33 25 -21 2 9 -2 26 -8 38 -9
17 -7 24 15 43 23 19 26 28 22 67 -2 25 -4 35 -5 23z"/>
<path d="M1381 855 c1 -157 -6 -224 -26 -239 -16 -12 -18 -19 -10 -42 15 -42
35 -42 35 1 0 20 7 50 16 67 11 21 15 46 11 76 -3 25 -1 57 5 73 7 21 5 37
-11 71 l-21 43 1 -50z"/>
<path d="M1166 739 c-26 -20 -34 -53 -17 -63 5 -3 12 5 15 19 7 27 53 45 121
45 30 0 36 3 25 10 -28 18 -115 12 -144 -11z"/>
<path d="M1460 739 c14 -5 35 -22 47 -37 21 -25 23 -25 23 -6 0 29 -31 54 -66
53 l-29 0 25 -10z"/>
<path d="M1689 1012 c-9 -20 -19 -55 -22 -77 -3 -22 -9 -49 -12 -60 -5 -17 0
-22 34 -31 57 -15 67 -1 51 67 -7 28 -10 68 -7 89 4 28 1 40 -10 44 -8 3 -15
6 -16 6 -1 0 -9 -17 -18 -38z"/>
<path d="M787 1006 c-16 -12 -17 -21 -7 -82 6 -38 13 -70 14 -72 2 -2 19 6 37
17 19 12 42 21 51 21 30 0 10 60 -31 97 -41 37 -40 37 -64 19z"/>
<path d="M798 2166 c-125 -22 -232 -45 -237 -51 -11 -11 -64 -188 -75 -249 -7
-35 -6 -37 8 -23 9 8 20 17 26 19 6 2 21 45 35 97 14 51 29 100 34 109 7 13
66 27 237 57 208 37 227 42 235 63 11 29 15 29 -263 -22z"/>
<path d="M1500 2197 c1 -31 27 -39 231 -75 l214 -37 22 -70 c12 -39 27 -88 33
-110 6 -23 21 -48 36 -58 l25 -19 -7 39 c-9 52 -53 203 -67 233 -11 23 -25 27
-222 62 -116 20 -222 39 -237 42 -18 4 -28 1 -28 -7z"/>
<path d="M820 2101 l-205 -37 -21 -64 c-12 -36 -25 -80 -29 -97 l-7 -33 46 0
c93 0 118 -28 138 -154 l11 -75 26 14 c15 7 52 18 82 23 31 6 78 24 104 41 27
17 63 36 82 42 l34 11 -7 56 c-4 31 -15 70 -25 87 -20 33 -26 129 -9 140 15 9
13 85 -2 84 -7 -1 -105 -18 -218 -38z m101 -181 l34 -5 -24 -17 c-20 -14 -23
-22 -17 -53 l7 -37 -28 20 c-28 20 -29 20 -53 1 -35 -26 -41 -24 -28 13 10 28
9 33 -16 55 l-27 23 35 0 c31 0 36 4 47 38 l12 37 12 -35 c10 -29 18 -36 46
-40z"/>
<path d="M1515 2101 c-3 -17 -2 -39 4 -50 15 -27 14 -85 -3 -125 -7 -18 -17
-60 -21 -93 -6 -57 -5 -62 15 -68 12 -4 46 -27 76 -51 31 -26 64 -44 78 -44
14 0 47 -9 74 -19 l48 -19 12 80 c19 128 42 155 140 157 l44 1 -7 33 c-19 84
-46 156 -63 161 -21 6 -364 66 -379 66 -6 0 -14 -13 -18 -29z m222 -181 l34 0
-27 -23 c-25 -22 -26 -27 -16 -55 13 -37 7 -39 -28 -13 -24 19 -25 19 -53 -1
l-28 -20 6 36 c6 30 4 39 -16 56 l-24 19 32 1 c27 0 34 5 45 36 l13 37 14 -37
c12 -32 18 -36 48 -36z"/>
<path d="M765 500 c109 -112 242 -201 407 -272 86 -37 96 -39 128 -28 75 26
204 91 283 143 93 60 225 179 170 153 -18 -9 -39 -16 -47 -16 -9 0 -43 -22
-76 -48 -73 -59 -201 -132 -292 -169 l-68 -26 -67 26 c-98 39 -221 111 -310
182 -43 34 -103 75 -133 90 l-55 27 60 -62z"/>
</g>
</svg>
