<?xml version="1.0" standalone="no"?>
<!DOCTYPE svg PUBLIC "-//W3C//DTD SVG 20010904//EN"
 "http://www.w3.org/TR/2001/REC-SVG-20010904/DTD/svg10.dtd">
<svg version="1.0" xmlns="http://www.w3.org/2000/svg"
 width="176.000000pt" height="180.000000pt" viewBox="0 0 176.000000 180.000000"
 preserveAspectRatio="xMidYMid meet">

<g transform="translate(0.000000,180.000000) scale(0.100000,-0.100000)"
fill="#000000" stroke="none">
<path d="M805 1720 c-70 -11 -200 -56 -265 -92 -169 -95 -319 -263 -381 -427
-54 -146 -74 -327 -49 -465 40 -226 175 -430 372 -564 173 -118 442 -166 648
-116 l75 18 -105 13 c-177 21 -298 68 -426 164 -126 96 -242 277 -284 443 -40
159 -21 367 49 520 125 275 411 465 704 466 88 1 73 14 -39 35 -79 16 -214 18
-299 5z"/>
<path d="M1348 1686 c-17 -12 -17 -14 0 -28 15 -13 19 -13 35 4 13 14 14 18 3
18 -8 0 -16 4 -18 9 -1 5 -11 4 -20 -3z"/>
<path d="M758 1453 c-54 -63 -60 -274 -9 -343 11 -16 30 -26 50 -28 l32 -3
-15 29 c-27 53 -39 153 -27 232 7 40 16 81 21 91 6 10 10 22 10 28 0 18 -46
13 -62 -6z"/>
<path d="M861 1457 c-19 -24 -39 -81 -46 -134 -16 -118 35 -265 82 -237 24 14
52 72 53 107 0 26 2 27 56 27 48 0 61 -4 90 -30 20 -17 51 -33 74 -36 l40 -7
0 -78 c0 -70 -4 -86 -34 -143 -36 -67 -63 -165 -53 -188 4 -7 15 -24 24 -38
21 -29 20 -28 -88 46 -98 66 -161 87 -244 82 -47 -3 -73 -11 -104 -31 -39 -26
-41 -26 -31 -7 12 22 102 70 133 70 27 0 20 14 -27 58 -67 62 -101 76 -181 77
-74 0 -120 -17 -193 -73 l-35 -26 6 -81 c10 -148 75 -317 146 -386 65 -61 210
-98 386 -99 44 0 105 -7 135 -15 132 -35 166 -16 261 145 91 154 103 203 96
385 -4 84 -16 187 -30 258 l-24 118 46 -3 c37 -2 46 -7 49 -23 2 -11 10 -39
18 -62 28 -76 79 -64 104 25 13 48 13 187 -1 235 -11 42 -44 80 -62 74 -22 -7
-49 -54 -54 -95 l-6 -42 -67 0 c-54 0 -70 4 -84 19 -10 11 -32 23 -50 26 -17
4 -46 16 -64 26 -18 10 -41 19 -52 19 -20 0 -70 -54 -70 -76 0 -10 -14 -14
-54 -14 l-53 0 -7 38 c-7 45 -40 102 -60 102 -7 0 -19 -6 -25 -13z m-388 -810
c14 -23 48 -64 75 -89 82 -77 173 -114 322 -132 19 -2 -5 -3 -55 -1 -111 3
-184 29 -250 88 -44 38 -103 118 -118 160 -11 29 0 19 26 -26z"/>
<path d="M1591 1418 c12 -36 18 -82 18 -143 0 -61 -6 -107 -18 -142 l-18 -53
27 0 c54 0 82 68 82 199 0 127 -31 191 -90 191 -19 0 -19 -1 -1 -52z"/>
</g>
</svg>
