<?xml version="1.0" standalone="no"?>
<!DOCTYPE svg PUBLIC "-//W3C//DTD SVG 20010904//EN"
 "http://www.w3.org/TR/2001/REC-SVG-20010904/DTD/svg10.dtd">
<svg version="1.0" xmlns="http://www.w3.org/2000/svg"
 width="1200.000000pt" height="1200.000000pt" viewBox="0 0 1200.000000 1200.000000"
 preserveAspectRatio="xMidYMid meet">

<g transform="translate(0.000000,1200.000000) scale(0.100000,-0.100000)"
fill="#000000" stroke="none">
<path d="M5945 10225 c-232 -43 -377 -109 -568 -256 -112 -86 -221 -200 -256
-268 -7 -14 -26 -39 -41 -56 -59 -65 -145 -237 -193 -385 -51 -157 -71 -307
-64 -476 7 -184 33 -294 98 -427 11 -22 19 -44 19 -50 0 -15 -45 29 -61 61 -7
15 -24 44 -36 64 -12 20 -37 80 -54 132 -20 59 -37 96 -46 96 -7 0 -60 -30
-116 -67 -56 -37 -109 -71 -118 -74 -33 -14 -197 -153 -298 -252 -86 -85 -184
-193 -302 -334 -10 -13 -42 -60 -70 -104 -55 -89 -55 -108 3 -91 129 40 358
53 488 28 198 -38 313 -86 485 -199 171 -114 329 -262 441 -413 55 -75 57 -76
93 -70 20 3 93 9 164 12 199 10 321 -21 521 -135 75 -43 158 -111 135 -111 -6
0 -23 9 -38 19 -25 18 -155 81 -206 101 -11 4 -33 13 -50 20 -100 41 -236 55
-390 39 -223 -23 -222 -23 -229 -2 -4 11 -14 28 -24 39 -9 10 -35 42 -57 69
-169 210 -494 442 -710 504 -77 23 -151 33 -268 38 -141 6 -247 -10 -439 -67
-40 -12 -72 -48 -103 -114 -34 -75 -72 -171 -79 -201 -4 -16 -22 -79 -40 -140
-43 -144 -56 -198 -56 -237 0 -17 -4 -45 -10 -62 -13 -45 -40 -327 -40 -426 0
-70 23 -287 45 -440 9 -58 27 -142 40 -190 7 -25 18 -65 25 -90 14 -51 38
-125 50 -155 4 -11 14 -36 21 -55 11 -31 41 -97 97 -220 20 -43 158 -276 184
-310 213 -280 359 -431 563 -580 55 -41 102 -77 105 -80 3 -4 50 -34 105 -67
129 -78 227 -128 370 -188 55 -23 242 -86 285 -96 19 -4 62 -15 95 -24 302
-81 868 -81 1170 0 33 9 76 20 95 24 113 26 329 110 485 188 82 41 264 150
283 170 8 7 23 18 35 25 51 27 220 170 328 278 98 97 163 174 297 350 30 39
164 269 194 330 40 85 67 147 84 193 9 23 20 51 24 62 5 11 16 45 26 75 9 30
20 64 25 75 4 11 10 31 13 45 3 14 12 54 21 90 28 111 46 235 66 462 13 136 8
227 -21 468 -41 337 -167 692 -354 995 -69 112 -139 198 -238 296 -43 42 -78
79 -78 83 0 3 -12 24 -26 46 -32 47 -30 76 12 165 42 92 56 167 61 325 7 212
-23 420 -77 536 -13 27 -28 60 -34 74 -16 38 -152 252 -178 280 -44 49 -164
148 -218 181 -31 19 -64 39 -75 46 -119 73 -255 143 -278 143 -7 0 -32 8 -57
16 -66 24 -182 54 -208 54 -13 0 -54 19 -90 43 -131 85 -311 161 -402 170
-134 14 -288 15 -355 2z m363 -172 c46 -11 -1 -23 -97 -23 -96 0 -125 -5 -245
-42 -62 -20 -71 -20 -95 -7 -48 27 -38 43 36 58 37 8 95 18 128 22 62 7 231 3
273 -8z m-518 -84 c43 -23 47 -28 28 -47 -19 -19 -70 -14 -98 9 l-25 21 24 19
c28 23 22 23 71 -2z m495 1 c-3 -5 -15 -10 -25 -10 -31 0 -213 -46 -242 -61
-10 -5 -22 -9 -27 -9 -11 0 -119 -51 -176 -83 -73 -41 -189 -134 -266 -213
-76 -79 -199 -246 -199 -271 0 -7 -4 -13 -10 -13 -5 0 -10 -7 -10 -15 0 -9
-11 -33 -25 -55 -14 -22 -25 -46 -25 -54 0 -8 -4 -18 -10 -21 -6 -3 -10 5 -10
19 0 14 5 28 10 31 6 3 10 13 10 22 0 13 22 61 61 133 65 118 224 302 324 375
22 16 42 31 45 35 13 14 92 60 160 92 119 56 149 68 175 68 13 0 27 5 30 10 3
6 25 10 48 11 23 0 51 4 62 9 29 12 108 12 100 0z m535 -144 c101 -16 180 -37
180 -48 0 -10 -5 -10 -110 -9 -76 2 -183 -15 -313 -48 -21 -5 -72 -25 -113
-45 l-73 -36 -33 18 c-18 9 -45 26 -61 36 -23 16 -31 17 -57 6 -44 -18 -39
-33 23 -65 20 -11 37 -26 37 -33 0 -14 -38 -51 -53 -52 -4 0 -33 16 -63 35
-30 19 -60 35 -67 35 -10 0 -101 -69 -245 -186 -57 -47 -44 -20 24 50 124 126
303 243 449 294 76 27 256 57 355 60 19 1 73 -5 120 -12z m247 -145 c114 -28
136 -36 203 -70 155 -79 286 -216 367 -383 13 -27 23 -52 23 -58 0 -21 -19 -8
-41 28 -30 51 -126 149 -169 173 -37 20 -59 34 -100 60 -47 31 -165 91 -210
107 -62 22 -293 22 -370 -1 -121 -35 -216 -82 -330 -162 -126 -90 -231 -202
-348 -371 -34 -50 -101 -190 -132 -274 -6 -19 -16 -44 -20 -55 -14 -36 -38
-158 -51 -256 -19 -152 12 -336 81 -475 60 -120 172 -231 307 -305 26 -15 75
-41 107 -59 73 -41 181 -70 258 -70 32 0 58 -4 58 -10 0 -15 -254 -12 -330 4
-71 15 -171 50 -210 74 -136 83 -201 141 -276 247 -121 171 -174 347 -174 580
0 284 85 536 266 793 64 90 212 235 304 298 83 57 209 123 285 149 163 56 363
70 502 36z m22 -192 c17 -6 31 -14 31 -19 0 -4 -32 -10 -70 -13 -63 -5 -93
-12 -165 -37 -11 -3 -56 -24 -99 -46 -44 -21 -86 -38 -94 -36 -21 5 -92 53
-92 62 0 14 135 60 255 89 56 13 196 13 234 0z m211 -124 c117 -43 196 -107
264 -213 87 -135 128 -327 107 -503 -13 -102 -40 -228 -53 -244 -4 -5 -8 -17
-8 -27 0 -10 -4 -26 -9 -36 -6 -9 -28 -57 -51 -107 -58 -127 -141 -244 -245
-350 -122 -123 -247 -206 -400 -266 -101 -39 -256 -49 -359 -24 -217 55 -346
196 -411 448 -18 69 -20 303 -4 374 17 74 39 156 49 178 4 11 15 39 24 62 105
282 341 543 602 665 60 28 82 35 174 58 57 14 269 4 320 -15z m-736 -45 c26
-17 46 -35 44 -41 -2 -6 -16 -18 -31 -27 -25 -16 -29 -15 -59 1 -18 10 -42 25
-53 33 -20 15 -20 16 8 40 15 13 31 24 36 24 4 0 29 -14 55 -30z m-1493 -206
c-6 -32 -11 -71 -11 -87 0 -25 2 -28 15 -17 8 7 15 22 15 34 0 13 9 40 20 62
l21 39 -6 -35 c-3 -19 -10 -69 -17 -110 -14 -85 -16 -334 -4 -426 10 -74 -2
-88 -37 -42 -25 34 -29 44 -53 168 -27 134 -9 315 44 443 21 51 25 40 13 -29z
m179 9 c0 -19 -3 -24 -10 -17 -6 6 -8 18 -4 27 9 24 14 21 14 -10z m280 -313
c-7 -13 -8 -34 -4 -53 7 -31 8 -31 13 -8 12 45 31 36 31 -14 0 -28 4 -44 10
-40 6 3 10 17 10 30 0 13 4 26 9 29 5 3 12 22 15 41 4 19 11 35 16 35 12 0 13
-53 1 -65 -11 -13 -22 -113 -12 -119 4 -3 18 29 30 69 38 126 53 86 21 -55 -5
-25 -12 -103 -16 -175 -5 -116 -1 -184 22 -350 l5 -40 -30 32 c-17 19 -33 28
-36 22 -4 -6 -17 1 -30 16 -13 14 -30 25 -37 25 -21 1 -43 41 -63 115 -36 131
-22 422 25 530 4 11 12 29 16 40 7 17 9 15 12 -12 2 -18 -2 -42 -8 -53z m60
16 c0 -14 -4 -28 -10 -31 -6 -4 -10 7 -10 24 0 17 5 31 10 31 6 0 10 -11 10
-24z m120 -6 c0 -5 -4 -10 -10 -10 -5 0 -10 5 -10 10 0 6 5 10 10 10 6 0 10
-4 10 -10z m306 -321 c-6 -63 -5 -69 9 -55 8 8 18 29 21 46 4 17 11 33 17 37
7 4 7 -17 1 -63 -4 -38 -8 -147 -9 -242 0 -94 -2 -172 -5 -172 -13 1 -44 31
-55 54 -39 74 -44 290 -10 388 8 24 15 51 15 61 0 9 5 17 11 17 9 0 10 -21 5
-71z m1354 -763 c0 -8 11 -41 24 -73 36 -88 111 -328 130 -418 10 -44 21 -96
26 -115 32 -128 37 -382 11 -540 -35 -216 -41 -299 -35 -460 7 -187 -6 -286
-53 -402 -18 -42 -10 -66 14 -46 19 15 66 116 81 173 20 72 32 170 33 266 2
113 10 161 24 139 14 -22 9 -648 -6 -718 -8 -39 -22 -68 -43 -90 -31 -34 -124
-84 -138 -76 -15 9 -8 19 23 33 40 18 87 66 105 110 15 35 19 121 7 121 -5 0
-16 -20 -27 -45 -19 -48 -57 -82 -116 -107 -19 -8 -69 -30 -110 -47 -257 -112
-330 -117 -550 -44 -155 51 -166 53 -530 53 -459 0 -635 16 -805 72 -126 41
-245 115 -307 188 -51 62 -57 97 -24 137 14 17 36 33 48 36 13 3 48 13 78 22
83 26 145 36 250 42 52 2 99 8 103 13 10 9 -76 40 -112 40 -75 1 -342 163
-496 301 l-70 63 -3 -33 c-2 -19 1 -38 7 -44 6 -6 11 -19 11 -28 0 -9 7 -22
15 -29 17 -14 20 -40 5 -40 -6 0 -39 14 -73 31 -68 33 -124 79 -136 113 -22
57 -22 64 5 95 29 35 66 41 101 16 30 -21 53 -9 53 29 0 41 5 47 70 87 112 70
194 99 330 119 97 14 113 20 80 30 -39 12 -283 11 -340 -1 -68 -15 -82 -7 -33
18 166 87 575 140 743 97 114 -29 260 -100 326 -157 38 -34 84 -94 84 -111 0
-13 -30 -5 -82 20 -61 30 -82 40 -120 54 -52 18 -31 -16 32 -55 58 -35 189
-156 244 -225 36 -45 66 -114 66 -150 0 -45 -35 -114 -74 -147 -22 -18 -60
-35 -94 -43 -31 -7 -84 -22 -117 -32 -33 -11 -93 -22 -132 -25 -40 -3 -73 -9
-73 -13 0 -14 25 -28 75 -39 164 -39 215 -42 432 -26 95 7 117 5 155 -9 62
-25 172 -108 296 -224 53 -49 188 -92 309 -99 150 -8 198 10 96 37 -27 7 -57
15 -68 17 -29 8 -142 120 -186 185 -39 58 -69 127 -69 164 0 11 -10 56 -21
100 -12 43 -25 99 -30 124 -4 25 -11 60 -15 78 -14 73 26 15 58 -83 39 -119
100 -217 202 -322 75 -78 89 -70 33 19 -68 108 -77 193 -38 358 6 25 17 77 25
115 8 39 19 87 24 108 14 52 69 161 93 183 21 19 26 44 8 44 -12 0 -51 -28
-113 -82 -24 -21 -46 -38 -50 -38 -9 0 -7 166 3 192 5 13 16 48 26 78 19 63
23 74 59 153 14 32 26 67 26 78 0 11 4 28 9 37 5 9 14 57 20 105 12 102 -2
294 -25 338 -8 16 -14 32 -14 37 0 5 30 29 68 55 37 25 87 64 112 86 47 42 70
51 70 27z m-262 -251 c5 -98 -43 -328 -64 -315 -5 3 -8 23 -6 45 1 22 4 102 5
177 4 141 12 172 46 166 12 -3 17 -19 19 -73z m-2828 -16 c67 -10 122 -25 152
-40 10 -5 22 -9 28 -9 26 0 163 -96 216 -152 71 -74 144 -214 144 -277 0 -106
-190 -200 -385 -189 -74 4 -79 -12 -15 -44 43 -22 45 -25 48 -71 4 -62 -22
-106 -85 -143 -130 -76 -193 -101 -303 -122 -109 -21 -216 -41 -285 -52 -38
-7 -89 -16 -112 -21 -23 -5 -47 -9 -52 -9 -17 0 -14 256 4 374 26 172 68 362
95 431 5 11 11 29 14 40 2 11 11 38 20 60 16 45 25 47 96 22 175 -61 231 -60
130 2 -28 17 -52 31 -55 31 -15 0 -115 73 -115 84 0 21 43 53 80 60 19 3 67
12 105 20 85 17 188 19 275 5z m2386 -181 c-11 -217 -15 -240 -37 -233 -13 4
-21 1 -25 -12 -3 -10 -9 -27 -14 -38 -4 -11 -15 -47 -25 -80 -9 -33 -21 -70
-26 -83 -5 -13 -9 -35 -9 -49 0 -25 -4 -42 -37 -143 -20 -62 -66 -160 -75
-160 -12 0 -10 28 2 35 6 3 10 19 10 34 0 15 4 31 8 36 8 10 29 77 51 161 6
23 11 54 11 70 0 34 40 161 74 237 34 74 37 83 52 167 8 43 11 97 8 128 -6 49
-5 52 16 52 22 0 22 0 16 -122z m-1 -302 c7 -53 -9 -161 -24 -171 -8 -4 -21
88 -21 146 0 34 16 79 29 79 5 0 13 -24 16 -54z m-2470 -934 c93 -34 238 -102
243 -114 2 -4 10 -8 17 -8 8 0 17 -5 21 -11 7 -12 -3 -11 -81 11 -178 49 -307
61 -391 34 -65 -20 -173 -70 -233 -108 -42 -27 -60 -25 -32 2 32 32 106 89
124 95 19 7 24 47 4 47 -12 0 -122 -22 -168 -35 -31 -8 -58 17 -41 38 16 19
181 64 262 71 86 7 225 -4 275 -22z m423 -521 c9 -5 44 -21 77 -36 33 -14 114
-54 180 -87 66 -34 149 -76 185 -94 75 -38 248 -104 271 -104 8 0 19 -4 25 -9
5 -4 29 -14 54 -20 110 -30 175 -40 403 -62 149 -14 150 -29 3 -29 -187 0
-446 47 -601 110 -16 7 -39 16 -50 20 -75 29 -452 223 -465 240 -3 4 -24 15
-47 25 -24 11 -43 22 -43 27 0 4 -6 8 -14 8 -8 0 -18 5 -21 10 -8 13 19 13 43
1z m-599 -52 c-136 -123 -159 -136 -159 -86 0 16 11 28 37 42 21 11 62 35 92
52 30 18 57 31 59 28 3 -3 -10 -19 -29 -36z m2671 -199 c186 -26 221 -29 294
-30 44 0 77 -2 74 -5 -3 -3 -34 -13 -68 -22 -54 -13 -76 -14 -149 -4 -47 7
-100 16 -117 22 -17 5 -38 9 -48 9 -20 0 -106 38 -106 46 0 4 12 3 28 -1 15
-3 56 -10 92 -15z"/>
<path d="M6910 9004 c-107 -21 -214 -85 -305 -180 -65 -69 -107 -139 -145
-243 -26 -74 -30 -97 -30 -190 0 -90 4 -116 27 -176 35 -92 61 -133 117 -182
97 -85 248 -126 344 -92 45 15 30 29 -31 29 -56 0 -135 25 -192 60 -114 70
-182 248 -156 402 42 240 206 430 413 478 147 34 314 -31 388 -152 23 -37 34
-48 42 -40 9 9 4 26 -16 67 -42 82 -96 137 -176 179 -64 34 -80 38 -163 41
-51 2 -103 1 -117 -1z"/>
<path d="M6931 8713 c-62 -13 -149 -89 -189 -164 -41 -77 -40 -209 1 -271 21
-31 104 -101 137 -116 8 -4 58 -32 110 -63 124 -74 164 -86 227 -69 88 25 174
93 207 165 31 70 36 89 36 146 0 77 -28 137 -89 189 -25 22 -49 40 -53 40 -3
0 -43 23 -88 51 -136 84 -149 90 -214 94 -33 2 -72 1 -85 -2z m116 -65 c45
-20 123 -69 123 -78 0 -4 -18 -15 -41 -24 -39 -16 -41 -16 -87 11 -26 16 -60
35 -76 44 -38 20 -42 33 -14 47 31 14 61 14 95 0z m-141 -74 c83 -44 119 -72
119 -90 0 -13 -6 -18 -18 -16 -30 5 -167 94 -167 108 0 19 30 18 66 -2z m414
-96 c74 -50 91 -145 44 -243 -44 -95 -151 -158 -225 -134 -74 25 -109 80 -109
171 0 51 6 73 30 114 59 104 180 146 260 92z m-514 -102 c-8 -33 10 -42 36
-19 21 18 21 18 15 -15 -5 -25 -3 -34 10 -39 9 -4 19 -1 21 5 2 7 8 12 14 12
6 0 7 -7 4 -15 -7 -20 23 -32 35 -14 6 10 9 2 9 -23 0 -46 -14 -48 -70 -13
-22 14 -43 25 -48 25 -13 0 -62 55 -62 70 0 13 28 50 38 50 2 0 1 -11 -2 -24z"/>
<path d="M5400 6696 c0 -2 7 -6 15 -10 8 -3 15 -1 15 4 0 6 -7 10 -15 10 -8 0
-15 -2 -15 -4z"/>
</g>
</svg>
