<?xml version="1.0" standalone="no"?>
<!DOCTYPE svg PUBLIC "-//W3C//DTD SVG 20010904//EN"
 "http://www.w3.org/TR/2001/REC-SVG-20010904/DTD/svg10.dtd">
<svg version="1.0" xmlns="http://www.w3.org/2000/svg"
 width="896.000000pt" height="759.000000pt" viewBox="0 0 896.000000 759.000000"
 preserveAspectRatio="xMidYMid meet">

<g transform="translate(0.000000,759.000000) scale(0.100000,-0.100000)"
fill="#000000" stroke="none">
<path d="M0 3795 l0 -3795 4480 0 4480 0 0 3795 0 3795 -4480 0 -4480 0 0
-3795z m4855 2060 c43 -9 114 -37 186 -74 137 -69 189 -80 280 -57 34 9 63 15
65 13 5 -5 24 -171 24 -213 0 -40 -2 -43 -32 -49 -18 -4 -48 -15 -65 -25 l-32
-19 -11 42 c-17 66 -18 66 -19 -6 -1 -44 6 -88 19 -124 11 -32 20 -71 20 -88
1 -16 7 -41 15 -55 22 -38 18 -67 -11 -87 -23 -15 -30 -15 -58 -3 -17 7 -53
14 -81 14 -46 1 -50 3 -50 26 0 20 7 27 33 35 27 8 32 14 31 40 0 16 -6 48
-14 70 l-13 40 -1 -47 c-1 -46 -4 -51 -87 -134 -47 -47 -83 -88 -80 -92 4 -3
25 13 49 36 l42 41 22 -24 c16 -18 32 -25 59 -25 20 0 35 -2 32 -5 -5 -5 -165
-35 -200 -38 -9 -1 -16 -4 -15 -7 1 -6 -59 -70 -67 -70 -3 0 -6 15 -6 34 0 50
-18 54 -22 5 l-3 -42 -114 114 c-175 177 -162 147 -164 350 l-2 173 63 50 c62
50 62 50 62 102 0 28 3 66 6 83 6 27 11 31 38 31 17 0 63 -7 101 -15z m-494
-230 c36 -19 69 -70 69 -108 0 -15 9 -40 20 -56 17 -22 20 -39 18 -96 l-3 -69
-34 43 c-34 42 -34 43 -18 71 22 37 21 50 -2 50 -20 0 -31 18 -31 51 0 33 -29
78 -54 85 -73 18 -122 -93 -78 -176 26 -47 46 -52 27 -6 -27 65 -13 146 25
146 22 0 30 -38 14 -68 -13 -27 -13 -35 -1 -64 8 -18 26 -44 41 -57 33 -31 33
-45 0 -37 -23 6 -24 5 -14 -15 10 -18 18 -20 51 -15 29 5 39 3 39 -7 0 -38
-76 -51 -107 -18 -44 46 -112 151 -122 187 -13 48 -2 96 31 132 41 43 81 51
129 27z m954 -265 c-3 -5 1 -10 9 -10 8 0 18 5 21 10 35 56 28 -131 -8 -239
-12 -35 -28 -67 -34 -69 -19 -6 -16 17 7 45 23 30 25 53 6 108 -19 57 -27 153
-12 159 17 7 18 7 11 -4z m-1005 -134 c20 -17 43 -26 65 -26 51 0 68 -51 71
-210 l2 -125 100 -101 100 -101 95 -194 c52 -107 105 -203 117 -214 20 -18 20
-16 -4 30 -14 28 -28 64 -32 80 l-7 30 44 -42 c24 -23 65 -51 90 -62 l47 -21
-14 -37 c-22 -63 -16 -68 26 -20 22 25 56 54 75 65 l34 21 -6 -45 -6 -44 29
15 c37 19 51 6 34 -35 -9 -22 -28 -39 -64 -57 -58 -29 -96 -60 -96 -80 0 -16
0 -16 38 3 18 8 58 18 89 20 l58 5 -38 -34 c-38 -35 -99 -57 -155 -57 -59 0
-133 32 -251 110 -126 84 -160 113 -68 60 125 -74 301 -150 314 -136 3 2 -19
15 -49 27 -75 33 -248 120 -347 175 -46 26 -81 41 -77 33 5 -9 2 -8 -6 2 -7 8
-20 18 -30 21 -40 16 -121 84 -138 117 -35 70 -53 155 -59 286 l-7 130 -8 -79
c-9 -78 -3 -242 10 -300 6 -25 5 -28 -12 -23 -10 4 -58 20 -106 37 -48 17
-133 37 -190 46 -56 8 -104 17 -106 19 -6 5 94 127 221 268 59 66 108 130 111
145 3 15 13 88 21 162 8 74 18 155 21 180 l7 45 13 -31 c7 -17 27 -43 44 -58z
m955 -311 c18 -17 25 -35 25 -61 l0 -37 -21 27 c-28 35 -66 34 -115 -4 -43
-35 -73 -36 -90 -1 -18 35 1 69 45 80 105 27 126 27 156 -4z m-1529 -666 c28
-11 71 -34 95 -51 l43 -31 -65 -17 c-70 -18 -136 -49 -186 -86 -27 -20 -35
-22 -62 -13 -34 12 -153 8 -186 -6 -51 -22 116 157 192 205 54 35 74 34 169
-1z m219 -153 c107 -45 267 -256 340 -451 35 -93 45 -236 22 -316 -27 -92
-110 -169 -234 -218 l-53 -21 83 83 c57 56 93 102 115 146 36 72 46 134 11 69
-26 -50 -32 -48 -14 3 25 69 17 77 -20 21 -47 -69 -52 -67 -10 4 29 47 60 142
51 152 -2 1 -20 -26 -41 -62 -20 -35 -64 -90 -97 -122 l-59 -59 41 63 c46 69
80 148 80 187 0 13 9 47 20 75 31 80 24 104 -9 33 -54 -114 -154 -226 -322
-361 -103 -82 -138 -99 -178 -83 -54 23 -127 167 -164 326 -3 11 -5 -21 -6
-71 -1 -96 19 -236 45 -317 9 -27 14 -49 13 -51 -2 -1 -29 -10 -59 -20 -30
-10 -81 -34 -113 -52 l-58 -34 -32 24 c-54 42 -158 85 -232 96 -99 16 -130 33
-157 88 -20 41 -23 61 -22 162 1 101 5 125 31 197 39 108 85 183 158 257 104
106 209 157 321 157 58 0 146 -24 163 -45 14 -16 -2 -108 -29 -172 -11 -25
-15 -42 -9 -38 16 10 78 143 85 184 4 19 18 48 33 64 31 34 123 95 160 106 42
13 109 11 146 -4z m1858 -81 c149 -31 303 -147 365 -276 63 -128 75 -238 47
-399 -8 -47 -15 -120 -15 -162 0 -73 3 -82 47 -165 107 -202 116 -223 120
-292 3 -50 -1 -76 -15 -106 l-19 -40 -16 37 c-65 153 -224 321 -375 397 -43
22 -44 23 -25 43 47 52 156 77 237 55 28 -8 29 -8 14 14 -23 35 -78 61 -119
56 l-37 -5 28 42 c51 75 73 159 68 261 -5 101 -32 173 -87 235 l-31 35 30 -60
c72 -147 47 -345 -59 -465 l-30 -35 7 35 c4 19 7 91 7 160 -1 99 -6 142 -24
205 -28 102 -94 242 -165 350 -31 47 -56 88 -56 90 0 8 33 5 103 -10z m-1539
-201 c3 -8 2 -12 -4 -9 -6 3 -10 10 -10 16 0 14 7 11 14 -7z m50 -114 c3 -14
-5 -2 -18 25 -14 28 -25 55 -25 60 0 15 36 -56 43 -85z m-1348 -617 c32 -2 82
-10 110 -18 63 -18 165 -85 200 -131 l26 -34 46 39 c108 88 223 132 352 135
76 1 90 -2 131 -26 34 -20 53 -40 68 -73 33 -71 55 -189 56 -302 0 -88 -3
-105 -21 -130 -42 -57 -163 -38 -484 77 -148 53 -186 63 -245 64 -53 1 -78 -4
-102 -19 -45 -26 -42 -38 4 -18 87 36 200 -5 298 -109 107 -111 103 -103 57
-127 -65 -33 -157 -116 -205 -183 -74 -105 -107 -185 -39 -95 115 150 350 259
592 274 149 9 242 -30 357 -149 49 -51 153 -200 153 -220 0 -14 92 -1 256 37
19 4 22 -1 28 -38 11 -72 54 -190 96 -260 l39 -68 -47 -29 c-113 -71 -366
-191 -492 -234 -167 -56 -281 -76 -431 -76 -230 0 -413 52 -572 163 -64 45
-61 55 15 56 56 1 169 30 208 53 30 17 55 20 195 22 136 3 175 7 260 30 110
29 318 127 375 175 34 30 32 29 -67 -14 -113 -49 -212 -78 -324 -93 -99 -14
-214 -24 -209 -18 3 2 52 23 110 46 164 64 317 157 390 235 23 25 20 24 -39
-10 -162 -95 -383 -177 -582 -216 -95 -19 -148 -23 -312 -24 l-199 0 -20 50
c-10 28 -26 86 -34 129 -8 44 -17 82 -20 85 -4 3 -4 -44 -1 -105 7 -116 32
-242 67 -333 39 -101 45 -108 95 -114 60 -9 163 -61 293 -150 58 -39 137 -88
176 -109 l71 -37 -70 0 c-112 0 -364 17 -444 30 -116 19 -157 66 -214 244 -55
171 -84 307 -117 550 -11 83 -23 164 -26 180 l-6 30 25 -35 c15 -22 26 -55 30
-91 4 -45 38 -139 50 -139 1 0 2 71 2 158 0 132 4 169 22 233 44 151 121 284
237 408 46 49 48 53 18 35 -67 -39 -200 -154 -290 -252 -100 -107 -140 -133
-165 -104 -35 41 -51 89 -55 174 -8 149 36 295 149 505 l63 115 26 -73 27 -72
59 -4z m3546 -563 c41 -89 56 -199 40 -291 -7 -39 -14 -75 -17 -79 -3 -4 -37
24 -76 61 -59 58 -72 76 -76 109 -4 26 -2 40 6 40 6 0 11 15 11 33 0 17 7 64
15 102 8 39 15 88 15 110 l1 40 25 -30 c14 -16 39 -59 56 -95z m-83 -363 c37
-65 59 -140 69 -237 l8 -75 8 60 c4 33 9 76 13 95 l6 35 22 -48 23 -49 7 54
c3 29 9 62 12 72 5 17 7 17 14 4 17 -31 39 -160 39 -232 l0 -72 -47 -16 c-57
-20 -154 -40 -160 -34 -3 2 1 29 7 59 15 65 9 198 -11 245 -13 32 -14 30 -15
-55 -1 -131 -52 -255 -110 -269 -13 -3 -49 -3 -80 1 -54 6 -56 7 -49 33 3 15
15 38 25 52 80 102 152 270 165 381 4 32 11 57 15 54 5 -3 22 -29 39 -58z
m-1640 -510 c-7 -5 -173 -77 -168 -73 2 2 33 29 69 60 64 55 65 56 84 36 11
-11 18 -21 15 -23z m-74 -105 c-23 -20 -337 -194 -406 -226 -128 -58 -234 -87
-339 -93 -96 -6 -250 12 -233 27 4 4 46 15 93 24 269 56 525 134 825 255 54
22 75 26 60 13z m-145 -177 c0 -2 -10 -10 -22 -16 -21 -11 -22 -11 -9 4 13 16
31 23 31 12z m-1922 -487 c-3 -7 -17 -48 -33 -90 l-28 -78 -250 -2 -251 -3
-18 -47 -18 -48 225 0 c124 0 225 -3 225 -7 0 -5 -13 -42 -28 -83 l-28 -75
-228 -5 -229 -5 -34 -95 c-19 -52 -39 -100 -45 -108 -7 -7 -38 -27 -70 -43
-48 -24 -69 -29 -133 -29 -42 0 -75 4 -75 10 0 8 208 587 249 693 l11 27 381
0 c301 0 380 -3 377 -12z m402 5 c0 -10 -214 -599 -230 -634 -7 -15 -35 -37
-74 -57 -55 -28 -73 -32 -141 -32 -69 0 -76 2 -70 18 3 9 56 154 117 322 61
168 115 311 122 319 6 8 38 27 71 43 49 23 74 28 133 28 39 0 72 -3 72 -7z
m1000 -5 c0 -7 -13 -47 -28 -88 l-28 -75 -151 -3 -151 -3 -82 -227 c-45 -125
-86 -235 -91 -244 -5 -9 -37 -31 -72 -48 -57 -28 -71 -31 -139 -28 l-75 3 98
270 c54 149 99 271 99 273 0 1 -67 2 -150 2 l-149 0 30 81 c16 45 32 86 35 90
3 5 196 9 430 9 332 0 424 -3 424 -12z m479 -206 l116 -212 16 37 c9 21 44
118 79 216 l63 177 128 0 c71 0 129 -4 129 -9 0 -5 -52 -154 -116 -330 l-116
-321 -57 -31 c-45 -26 -70 -33 -131 -37 l-75 -4 -40 69 c-149 257 -205 345
-209 332 -3 -8 -37 -99 -74 -204 l-69 -190 -133 -3 c-73 -1 -130 1 -128 6 1 5
61 170 132 366 l129 357 120 -3 120 -3 116 -213z m1450 206 c0 -7 -13 -47 -28
-88 l-28 -75 -260 -3 -259 -2 -13 -38 c-8 -20 -16 -43 -18 -49 -4 -10 45 -13
226 -13 178 0 231 -3 231 -12 0 -7 -12 -46 -26 -85 l-27 -73 -238 0 -238 0 -7
-35 c-12 -67 -20 -65 246 -65 186 0 240 -3 239 -12 0 -7 -13 -47 -28 -88 l-27
-75 -291 -3 -291 -2 -66 52 c-36 29 -69 63 -72 76 -4 15 24 105 86 280 51 141
99 272 106 290 l13 32 385 0 c303 0 386 -3 385 -12z m941 8 c0 -3 -14 -43 -31
-90 l-31 -86 -258 0 c-254 0 -259 0 -284 -22 -14 -13 -28 -35 -32 -50 l-6 -28
272 0 c214 0 271 -3 267 -12 -2 -7 -23 -65 -47 -130 -51 -140 -62 -152 -225
-242 l-120 -66 -287 0 -287 0 32 90 32 90 261 0 262 0 26 31 c14 17 26 39 26
50 0 18 -12 19 -269 21 l-269 3 47 128 c27 70 57 137 67 148 20 22 99 70 217
133 l69 36 284 0 c156 0 284 -2 284 -4z m938 -8 c-3 -7 -17 -48 -33 -90 l-28
-78 -254 0 c-155 0 -262 -4 -274 -10 -19 -10 -49 -59 -49 -80 0 -7 88 -10 271
-10 213 0 270 -3 266 -12 -2 -7 -23 -65 -47 -130 -51 -140 -62 -152 -225 -242
l-120 -66 -288 0 c-159 0 -287 4 -285 8 2 4 16 45 32 90 l29 82 262 0 c258 0
262 0 283 23 11 12 24 34 27 49 l7 28 -270 2 -269 3 43 119 c23 66 51 131 62
145 20 28 91 74 215 140 l79 41 285 0 c224 0 284 -3 281 -12z"/>
<path d="M4950 5528 c-30 -13 -203 -16 -245 -5 -28 7 -29 6 -11 -8 40 -31 130
-58 184 -56 29 1 63 -1 75 -6 19 -6 16 -8 -17 -13 l-39 -5 46 -23 c26 -13 63
-24 82 -25 19 -1 35 -3 35 -4 0 -2 -21 -14 -47 -28 -27 -15 -39 -23 -28 -20
11 4 57 10 102 14 69 5 85 10 103 31 26 31 35 65 23 93 -10 21 -11 20 -18 -11
-7 -33 -8 -34 -43 -27 -46 9 -103 37 -144 74 -28 24 -37 27 -58 19z"/>
<path d="M4850 5445 c0 -2 8 -9 18 -14 14 -8 19 -6 19 5 0 7 -9 14 -19 14 -10
0 -18 -2 -18 -5z"/>
</g>
</svg>
