<?xml version="1.0" standalone="no"?>
<!DOCTYPE svg PUBLIC "-//W3C//DTD SVG 20010904//EN"
 "http://www.w3.org/TR/2001/REC-SVG-20010904/DTD/svg10.dtd">
<svg version="1.0" xmlns="http://www.w3.org/2000/svg"
 width="799.000000pt" height="796.000000pt" viewBox="0 0 799.000000 796.000000"
 preserveAspectRatio="xMidYMid meet">

<g transform="translate(0.000000,796.000000) scale(0.100000,-0.100000)"
fill="#000000" stroke="none">
<path d="M0 5265 l0 -2695 3995 0 3995 0 0 2695 0 2695 -3995 0 -3995 0 0
-2695z m4309 2350 c349 -54 690 -183 966 -363 151 -99 309 -228 403 -329 76
-81 101 -103 117 -99 25 6 126 -5 270 -32 61 -11 134 -23 163 -26 29 -4 87
-16 130 -27 42 -11 93 -24 112 -29 19 -5 60 -19 90 -30 30 -12 66 -25 80 -29
127 -40 311 -158 441 -283 94 -91 140 -162 191 -300 28 -76 31 -93 32 -213 1
-138 -10 -205 -61 -360 -25 -78 -156 -350 -187 -390 -9 -11 -49 -65 -90 -120
-103 -140 -438 -478 -592 -597 -85 -66 -109 -96 -129 -158 -23 -73 -123 -263
-195 -370 -141 -209 -408 -492 -606 -642 -231 -175 -411 -271 -732 -392 -52
-20 -210 -61 -307 -81 -174 -35 -282 -46 -460 -44 -484 6 -799 89 -1235 327
-113 62 -298 191 -375 262 -128 119 -135 122 -420 165 -219 33 -422 92 -649
190 -459 197 -700 561 -632 955 22 127 37 172 111 325 55 116 192 336 242 390
10 11 29 34 41 50 88 115 393 392 468 426 27 12 56 25 64 29 8 4 24 45 36 96
21 85 117 326 164 409 86 154 154 260 247 385 94 126 316 344 467 458 134 101
366 232 491 277 28 10 55 22 60 26 6 4 26 12 45 17 19 6 55 18 80 27 134 49
368 97 585 119 92 9 474 -3 574 -19z m-3911 -2306 c72 -35 112 -86 144 -180
19 -57 19 -62 3 -133 -14 -67 -21 -79 -65 -120 -118 -110 -245 -112 -363 -6
-117 105 -128 258 -27 374 89 101 193 123 308 65z m7288 -1 c70 -45 124 -150
124 -243 0 -98 -40 -167 -123 -215 -72 -41 -119 -40 -196 5 -101 60 -165 154
-165 245 0 84 60 181 138 220 58 30 164 24 222 -12z"/>
<path d="M3740 7490 c-353 -28 -795 -180 -1075 -368 -102 -68 -290 -228 -381
-323 -204 -215 -399 -527 -513 -819 -59 -154 -113 -381 -131 -555 -6 -55 -15
-138 -20 -185 -14 -121 -12 -232 6 -394 24 -217 58 -331 182 -621 73 -172 77
-185 60 -185 -20 0 -119 48 -153 75 -16 12 -38 38 -47 56 -26 52 -115 305
-139 394 -43 166 -71 403 -67 565 l3 115 -25 -3 c-34 -4 -101 -72 -164 -167
-112 -169 -149 -284 -150 -460 0 -213 45 -319 203 -475 84 -84 109 -102 201
-147 204 -100 319 -127 725 -174 160 -18 223 -20 580 -16 220 2 450 9 510 15
61 6 168 13 239 17 139 6 286 24 406 50 41 9 138 29 215 46 148 30 151 31 316
103 58 25 166 66 240 91 80 28 222 90 354 155 240 120 313 161 568 324 106 67
421 302 476 354 8 7 44 37 81 67 187 149 384 392 462 570 76 173 76 367 0 523
-30 63 -138 178 -217 232 -79 54 -242 121 -389 161 -79 21 -106 23 -106 10 0
-5 38 -74 85 -154 132 -224 201 -409 251 -677 14 -74 35 -156 46 -181 24 -54
24 -54 -55 -139 -62 -66 -87 -73 -87 -22 0 68 -45 317 -88 487 -65 257 -266
633 -480 898 -68 84 -222 231 -323 307 -241 185 -458 291 -784 385 -221 64
-528 88 -815 65z m369 -204 l34 -12 -44 -35 c-125 -101 -430 -254 -646 -325
-159 -53 -454 -117 -515 -112 -42 4 -42 4 -13 12 52 15 316 148 322 162 3 8
11 14 18 14 8 0 21 7 30 16 9 9 35 24 58 33 50 19 208 103 203 108 -3 4 -76
-21 -192 -65 -45 -17 -85 -28 -88 -25 -3 4 -6 1 -6 -6 0 -7 -5 -9 -10 -6 -6 4
-52 -7 -103 -23 -50 -17 -126 -40 -167 -52 -85 -26 -250 -109 -250 -126 0 -25
-155 -109 -188 -102 -12 3 -3 13 28 33 25 16 56 39 70 51 55 48 271 183 365
228 214 102 366 153 590 196 247 47 436 61 504 36z m328 -52 c12 -31 -45 -120
-130 -200 -100 -97 -191 -159 -367 -253 -122 -65 -337 -161 -362 -161 -6 0
-24 -6 -41 -14 -50 -22 -331 -111 -457 -146 -63 -17 -125 -36 -138 -41 -36
-14 -44 -11 -27 14 8 13 12 27 8 30 -3 4 -1 7 5 7 18 0 15 72 -4 98 -8 12 -23
22 -32 22 -10 1 -5 7 13 16 29 14 29 14 -25 8 -30 -3 -64 -7 -75 -10 -34 -7
-91 -14 -70 -8 11 4 25 10 30 14 6 4 46 18 90 29 93 26 100 28 225 76 52 21
156 57 230 82 257 85 500 193 688 304 130 78 190 119 196 135 4 11 30 14 121
14 97 0 117 -3 122 -16z m373 -100 c52 -19 98 -38 104 -44 10 -10 11 -53 0
-114 -7 -46 -39 -113 -78 -166 -79 -106 -282 -276 -476 -398 -114 -71 -527
-273 -620 -303 -14 -4 -50 -17 -80 -29 -30 -12 -136 -50 -235 -85 -99 -34
-218 -76 -264 -93 -112 -42 -234 -69 -239 -53 -2 6 -16 11 -30 11 -64 0 -72 8
-72 69 0 45 4 60 19 71 11 7 17 18 14 24 -4 6 -6 25 -5 44 2 20 -1 31 -7 28
-5 -4 -12 -2 -15 3 -8 13 6 21 93 51 41 14 77 33 79 41 4 11 2 12 -9 2 -8 -6
-32 -14 -54 -18 -22 -4 -44 -11 -50 -15 -5 -4 -23 -10 -40 -14 -16 -3 -75 -20
-130 -37 -55 -16 -125 -37 -155 -46 -30 -8 -75 -21 -100 -28 -100 -29 -159
-46 -228 -66 -111 -32 -159 -69 -204 -159 -35 -68 -46 -104 -64 -210 -7 -36
-27 -60 -52 -60 -12 0 -13 10 -8 53 10 73 63 254 89 302 l22 40 250 67 c138
36 345 98 460 137 205 68 233 78 345 121 30 12 84 30 120 42 36 11 117 40 180
65 63 24 131 50 150 58 107 41 162 65 330 148 142 70 243 130 437 259 138 93
265 184 282 203 40 45 71 107 71 140 l0 25 38 -16 c20 -9 80 -32 132 -50z
m424 -268 c121 -142 146 -185 146 -261 0 -138 -47 -229 -195 -380 -73 -74
-135 -124 -230 -187 -136 -89 -323 -195 -460 -258 -44 -21 -114 -53 -155 -73
-41 -19 -120 -53 -175 -76 -55 -23 -109 -46 -120 -51 -42 -19 -103 -43 -195
-75 -52 -18 -149 -56 -215 -83 -66 -27 -156 -61 -200 -76 -44 -14 -89 -31
-100 -36 -11 -5 -38 -14 -60 -19 -22 -5 -50 -13 -62 -16 -14 -5 -23 -3 -23 3
0 6 8 13 18 15 14 4 14 5 -3 6 -34 3 -56 26 -53 57 1 16 -4 39 -10 51 -7 13
-10 33 -7 46 4 12 2 34 -4 49 -6 17 -6 29 0 35 7 7 4 16 -8 29 -16 15 -16 17
-1 12 9 -4 18 -1 21 6 3 7 20 16 38 20 18 3 30 8 28 10 -5 5 -101 -15 -179
-38 -166 -47 -203 -57 -285 -77 -49 -12 -119 -30 -154 -40 -35 -10 -74 -19
-86 -19 -12 0 -25 -3 -29 -7 -7 -8 -94 -29 -151 -39 -19 -3 -13 1 15 11 78 26
311 96 400 121 212 58 477 148 655 223 77 32 185 76 240 97 116 45 518 241
620 304 72 44 250 160 366 237 126 85 325 271 394 368 23 33 55 95 71 137 19
50 34 78 44 77 8 0 55 -46 104 -103z m295 -288 c7 -24 40 -95 74 -158 60 -112
62 -117 62 -190 -1 -135 -57 -242 -224 -434 -125 -143 -355 -339 -513 -438
-46 -28 -107 -67 -135 -85 -52 -34 -290 -151 -404 -198 -32 -14 -83 -36 -111
-49 -29 -13 -89 -38 -133 -56 -80 -32 -132 -54 -170 -71 -11 -5 -33 -13 -50
-18 -16 -5 -55 -19 -85 -31 -72 -29 -191 -60 -202 -54 -4 3 -8 1 -8 -4 0 -11
-73 -34 -91 -28 -41 13 -69 15 -69 6 0 -5 12 -10 28 -10 21 0 24 -2 12 -10 -8
-5 -20 -10 -26 -10 -14 0 -47 82 -36 89 5 3 8 48 8 98 -1 86 -3 93 -21 93 -18
1 -17 2 5 15 14 8 32 14 41 15 8 0 46 16 85 35 38 19 77 35 86 35 9 0 20 5 24
11 4 7 -1 9 -15 5 -11 -3 -31 -9 -43 -12 -13 -3 -32 -9 -43 -14 -37 -17 -359
-136 -415 -153 -30 -9 -102 -31 -160 -48 -58 -17 -145 -44 -195 -59 -49 -16
-110 -33 -135 -39 -25 -5 -63 -14 -85 -20 -91 -24 -72 -8 30 25 440 141 561
181 640 211 50 19 119 46 155 60 149 57 349 138 410 166 267 123 358 167 462
224 298 163 445 257 640 409 140 109 162 128 269 234 153 151 198 218 254 375
43 124 44 125 58 125 8 0 19 -19 26 -42z m-3068 -23 c3 -2 -22 -33 -54 -67
-33 -35 -95 -113 -138 -174 -82 -116 -115 -152 -126 -141 -8 9 81 179 124 237
60 79 123 139 151 143 15 2 30 5 33 6 3 0 8 -1 10 -4z m341 -467 c-7 -7 -12
-8 -12 -2 0 14 12 26 19 19 2 -3 -1 -11 -7 -17z m3048 -95 c7 -32 20 -80 30
-108 57 -156 87 -388 60 -459 -7 -19 -6 -24 4 -20 9 3 16 -17 25 -73 23 -143
24 -208 6 -247 -43 -89 -248 -237 -460 -331 -33 -14 -71 -33 -85 -41 -68 -38
-216 -105 -310 -138 -41 -15 -88 -33 -105 -41 -16 -7 -52 -23 -80 -35 -27 -13
-77 -35 -110 -50 -75 -34 -166 -70 -270 -105 -247 -84 -312 -105 -327 -105 -9
0 -18 -4 -20 -9 -1 -5 -18 -11 -36 -14 -18 -3 -40 -11 -48 -17 -8 -8 -14 -8
-14 -2 0 5 7 12 15 16 21 8 19 29 -5 46 -12 8 -20 26 -20 42 0 15 -4 28 -10
28 -5 0 -10 23 -10 50 0 28 5 50 10 50 6 0 10 20 10 45 0 38 -3 45 -20 45 -13
0 -20 7 -20 20 0 11 -4 20 -10 20 -5 0 -10 4 -10 10 0 5 28 18 63 29 34 11 55
20 47 21 -9 0 -6 6 10 15 19 11 21 14 7 15 -9 0 -25 -4 -35 -10 -9 -5 -53 -21
-97 -36 -44 -14 -84 -30 -89 -35 -6 -5 -17 -9 -25 -9 -9 0 -27 -6 -41 -13 -39
-20 -259 -94 -375 -125 -22 -6 -87 -25 -145 -41 -286 -82 -518 -141 -550 -140
-28 0 40 23 330 110 755 225 1273 435 1724 696 194 113 429 287 548 406 248
246 398 453 398 548 0 35 6 49 21 49 4 0 13 -26 19 -57z m-3567 -610 c-7 -2
-19 -2 -25 0 -7 3 -2 5 12 5 14 0 19 -2 13 -5z m857 -78 c0 -8 -4 -15 -10 -15
-5 0 -10 7 -10 15 0 8 5 15 10 15 6 0 10 -7 10 -15z m-1170 -14 c-42 -22 -49
-51 -53 -221 -1 -63 -6 -118 -12 -122 -5 -4 -20 -8 -32 -8 -23 0 -23 0 -17
123 3 67 9 145 13 172 6 46 9 51 41 62 19 7 48 12 65 12 l30 1 -35 -19z m1465
-568 c-11 -3 -25 -9 -32 -15 -7 -5 -13 -5 -17 1 -7 12 11 20 44 19 20 0 21 -1
5 -5z m-1437 -117 c2 -16 10 -39 17 -50 7 -12 16 -46 19 -76 4 -30 9 -70 12
-87 5 -25 3 -33 -8 -33 -9 0 -36 51 -70 130 -49 115 -53 132 -39 140 9 6 27 9
41 7 19 -1 26 -8 28 -31z m1859 -112 c-3 -3 -12 -4 -19 -1 -8 3 -5 6 6 6 11 1
17 -2 13 -5z m-1087 -263 c0 -10 -98 -26 -106 -18 -3 3 18 10 48 15 29 5 54
10 56 11 1 0 2 -3 2 -8z m-125 -31 c-3 -5 -15 -10 -27 -10 -11 0 -43 -6 -71
-14 -29 -8 -70 -17 -92 -20 -74 -12 -13 12 86 33 113 24 112 23 104 11z m1430
-10 c3 -6 -4 -10 -17 -10 -18 0 -20 2 -8 10 19 12 18 12 25 0z m-1834 -89
c-10 -7 -8 -17 8 -50 18 -35 19 -42 7 -47 -27 -10 -50 1 -73 35 -35 52 -31 69
20 73 47 3 57 1 38 -11z"/>
<path d="M2988 6653 c7 -3 16 -2 19 1 4 3 -2 6 -13 5 -11 0 -14 -3 -6 -6z"/>
<path d="M3250 5644 c-33 -13 -33 -14 -5 -8 17 3 34 10 40 15 11 11 8 11 -35
-7z"/>
<path d="M3700 5150 c-13 -8 -12 -10 3 -10 9 0 17 5 17 10 0 12 -1 12 -20 0z"/>
<path d="M4210 4664 c-16 -8 -19 -14 -9 -14 8 0 24 7 35 15 24 18 7 18 -26 -1z"/>
<path d="M4160 4246 c0 -9 7 -12 21 -9 16 4 17 8 7 14 -19 13 -28 11 -28 -5z"/>
<path d="M5881 6665 c38 -56 47 -61 134 -68 103 -10 328 -58 434 -93 65 -22
222 -98 283 -137 193 -123 297 -334 285 -573 -6 -113 -26 -182 -93 -317 -86
-173 -259 -392 -467 -590 -77 -73 -275 -229 -324 -255 -12 -7 -51 -35 -87 -62
-36 -28 -68 -50 -71 -50 -3 0 -39 -25 -81 -56 -72 -53 -228 -154 -238 -154 -3
0 -58 -31 -121 -69 -93 -56 -124 -70 -156 -69 -38 0 -52 12 -26 21 6 2 8 8 4
13 -4 4 -22 2 -40 -5 -54 -22 -318 -101 -338 -101 -10 0 -19 -4 -19 -10 0 -5
-7 -10 -15 -10 -9 0 -75 -20 -148 -44 -72 -25 -152 -50 -177 -56 -25 -6 -52
-12 -60 -15 -178 -47 -350 -85 -645 -140 -130 -25 -275 -37 -290 -25 -7 6 -15
7 -17 2 -1 -5 -30 -12 -63 -16 -33 -3 -82 -11 -110 -16 -154 -30 -192 -37
-210 -43 -11 -3 -105 -14 -210 -23 -243 -22 -780 -25 -945 -6 -292 34 -386 55
-585 128 -150 55 -173 66 -277 141 -136 98 -207 192 -266 353 -23 61 -23 282
0 360 72 247 297 572 464 673 43 25 57 40 68 72 15 44 56 268 50 274 -21 23
-198 -146 -304 -289 -14 -18 -32 -40 -41 -49 -8 -9 -28 -34 -44 -56 -16 -22
-41 -53 -55 -70 -30 -33 -180 -284 -229 -382 -142 -285 -133 -529 29 -772 129
-192 274 -290 608 -411 194 -70 405 -109 674 -125 64 -4 120 -10 125 -14 5 -3
19 -23 32 -43 40 -66 115 -125 372 -291 201 -130 419 -220 707 -291 203 -51
293 -61 507 -60 417 2 783 88 1100 259 156 84 203 110 226 127 310 226 519
434 686 687 90 135 177 315 197 403 6 29 8 30 170 150 289 214 605 576 744
853 72 145 102 219 133 333 27 95 28 244 4 347 -15 66 -69 184 -119 264 -30
47 -137 147 -206 192 -61 39 -260 127 -373 163 -156 51 -371 86 -526 86 l-90
0 30 -45z m-121 -2597 c-35 -50 -82 -98 -97 -98 -17 0 -76 -38 -174 -112 -80
-59 -223 -148 -299 -184 -217 -105 -284 -136 -340 -159 -36 -14 -78 -32 -95
-39 -66 -29 -362 -112 -371 -104 -1 2 86 39 194 82 305 122 605 275 833 427
46 31 104 67 129 81 49 26 120 70 190 117 24 16 46 28 48 26 2 -2 -6 -19 -18
-37z m-1420 -718 c-8 -5 -22 -10 -30 -10 -13 0 -13 1 0 10 8 5 22 10 30 10 13
0 13 -1 0 -10z m-60 -20 c0 -5 -10 -10 -22 -9 -22 0 -22 1 -3 9 11 5 21 9 23
9 1 1 2 -3 2 -9z"/>
<path d="M2526 1833 c-3 -4 -6 -28 -6 -55 l0 -48 46 0 45 0 -3 53 -3 52 -36 2
c-20 1 -39 -1 -43 -4z"/>
<path d="M4347 1834 c-4 -4 -7 -166 -7 -361 l0 -353 45 0 45 0 0 178 c0 158 2
180 20 209 27 46 73 66 132 61 93 -9 108 -50 108 -287 l0 -161 40 0 40 0 0
193 c0 165 -3 198 -19 232 -54 117 -182 140 -288 51 l-32 -27 -3 133 -3 133
-35 3 c-20 2 -39 0 -43 -4z"/>
<path d="M3287 1810 c-120 -30 -180 -115 -157 -224 19 -92 64 -123 238 -161
118 -27 163 -85 129 -168 -22 -52 -65 -72 -157 -71 -70 1 -90 6 -193 49 -16 7
-18 3 -15 -41 l3 -49 65 -17 c36 -9 99 -17 141 -17 151 -2 238 49 258 151 25
125 -36 211 -175 244 -184 45 -204 56 -204 124 0 101 127 140 283 86 l68 -23
-3 46 c-3 44 -4 46 -45 57 -60 18 -191 25 -236 14z"/>
<path d="M2050 1465 l0 -345 50 0 51 0 -2 163 -1 162 137 3 136 3 -3 37 -3 37
-80 -3 c-44 -2 -104 0 -132 3 l-53 6 0 100 0 99 151 0 150 0 -3 38 -3 37 -197
3 -198 2 0 -345z"/>
<path d="M2780 1710 c0 -55 -3 -70 -15 -71 -8 -1 -21 -2 -27 -3 -7 0 -14 -16
-16 -33 -3 -31 -1 -33 27 -33 l31 0 1 -167 c0 -251 14 -274 169 -281 l90 -4 0
36 0 36 -63 0 c-107 0 -107 0 -107 206 l0 174 85 0 85 0 0 35 0 35 -85 0 -85
0 0 70 0 70 -45 0 -45 0 0 -70z"/>
<path d="M3928 1638 c-22 -6 -50 -24 -68 -44 l-30 -35 0 41 0 41 -42 -3 -43
-3 0 -355 0 -355 43 -3 42 -3 0 137 0 137 20 -25 c30 -38 80 -58 148 -58 53 0
66 4 103 33 61 46 93 113 98 206 5 111 -11 170 -64 229 -59 66 -120 83 -207
60z m104 -79 c45 -20 72 -75 76 -156 6 -103 -3 -137 -47 -183 -33 -35 -44 -40
-82 -40 -89 0 -139 57 -147 170 -6 85 11 145 53 187 28 28 40 33 79 33 25 0
55 -5 68 -11z"/>
<path d="M5090 1640 c-65 -14 -120 -58 -155 -125 -25 -49 -30 -69 -30 -134 0
-95 23 -157 74 -204 61 -55 115 -71 224 -64 50 3 107 10 125 17 29 11 32 16
32 51 0 21 -1 39 -2 39 -2 0 -32 -9 -66 -20 -77 -24 -162 -26 -208 -4 -38 18
-80 82 -86 129 l-3 30 194 3 194 2 -6 65 c-9 93 -52 166 -118 200 -36 19 -115
26 -169 15z m156 -103 c26 -24 37 -43 41 -75 l6 -42 -148 0 -148 0 6 35 c12
73 68 114 155 115 45 0 57 -4 88 -33z"/>
<path d="M5707 1638 c-21 -6 -53 -25 -72 -43 l-35 -32 0 38 0 38 -42 -2 -43
-2 -3 -257 -2 -258 44 0 44 0 4 173 c3 151 5 176 23 207 29 50 77 72 143 66
l52 -5 0 39 c0 50 -29 60 -113 38z"/>
<path d="M6024 1639 c-51 -12 -118 -68 -147 -123 -18 -34 -22 -57 -22 -142 0
-94 2 -103 30 -149 19 -31 49 -61 80 -80 46 -28 54 -30 154 -30 62 0 122 6
144 13 34 13 37 16 37 54 0 34 -2 39 -17 33 -93 -40 -223 -44 -270 -9 -41 31
-62 65 -69 112 l-7 42 193 0 193 0 -5 70 c-12 159 -136 247 -294 209z m155
-85 c24 -17 60 -86 61 -116 0 -16 -14 -18 -151 -18 l-151 0 6 32 c15 75 71
118 156 118 35 0 64 -6 79 -16z"/>
<path d="M2527 1634 c-4 -4 -7 -121 -7 -261 l0 -253 45 0 45 0 0 255 c0 236
-1 255 -17 255 -10 0 -27 3 -38 6 -11 3 -24 2 -28 -2z"/>
<path d="M1992 3 c1098 -2 2898 -2 4000 0 1102 1 203 2 -1997 2 -2200 0 -3101
-1 -2003 -2z"/>
</g>
</svg>
